<svg width="3706" height="800" viewBox="0 0 3706 800" fill="none" xmlns="http://www.w3.org/2000/svg">
<g clip-path="url(#clip0)">
<path fill-rule="evenodd" clip-rule="evenodd" d="M800 300C800 134.315 665.685 0 500 0H300C134.315 0 0 134.315 0 300V500C0 665.685 134.315 800 300 800H500C665.685 800 800 665.685 800 500V300ZM141.213 307.787C122.314 326.686 135.699 359 162.426 359H199C215.569 359 229 372.431 229 389V589.55C229 606.086 215.622 619.497 199.099 619.55C181.636 617.138 166.11 614.577 152.807 612.042C149.244 611.363 145.628 611 142 611C136.477 611 132 615.477 132 621V657.779C132 667.098 138.385 675.197 147.525 677.014C236.789 694.763 437.809 714.987 651.743 676.719C661.182 675.031 668 666.772 668 657.183V621C668 615.477 663.523 611 658 611H653.626C651.325 611 649.028 611.204 646.761 611.6C631.785 614.218 616.876 616.551 602.069 618.621C602.032 618.626 602 618.597 602 618.561C602 618.527 601.973 618.5 601.939 618.5C585.399 618.467 572 605.048 572 588.5V389C572 372.431 585.431 359 602 359H638.574C665.301 359 678.686 326.686 659.787 307.787L462.213 110.213C443.314 91.3143 411 104.699 411 131.426V329C411 345.569 424.431 359 441 359H482C498.569 359 512 372.431 512 389V604.278C512 604.317 511.974 604.351 511.936 604.36C511.902 604.368 511.876 604.397 511.872 604.432C510.627 614.929 503.978 623.727 494.825 628.028C491.939 629.384 488.73 629.811 485.547 629.993C435.392 632.864 387.702 633.079 344.034 631.598C321.766 630.843 293.101 628.414 289.252 606.468C289.152 605.895 289.067 605.317 289 604.733V389C289 372.431 302.431 359 319 359H360C376.569 359 390 345.569 390 329V131.426C390 104.699 357.686 91.3143 338.787 110.213L141.213 307.787Z" fill="#FF526F"/>
<path d="M974.8 398.8C974.8 357.2 983.8 320.2 1001.8 287.8C1019.8 255 1044.8 229.6 1076.8 211.6C1109.2 193.2 1145.8 184 1186.6 184C1236.6 184 1279.4 197.2 1315 223.6C1350.6 250 1374.4 286 1386.4 331.6H1273.6C1265.2 314 1253.2 300.6 1237.6 291.4C1222.4 282.2 1205 277.6 1185.4 277.6C1153.8 277.6 1128.2 288.6 1108.6 310.6C1089 332.6 1079.2 362 1079.2 398.8C1079.2 435.6 1089 465 1108.6 487C1128.2 509 1153.8 520 1185.4 520C1205 520 1222.4 515.4 1237.6 506.2C1253.2 497 1265.2 483.6 1273.6 466H1386.4C1374.4 511.6 1350.6 547.6 1315 574C1279.4 600 1236.6 613 1186.6 613C1145.8 613 1109.2 604 1076.8 586C1044.8 567.6 1019.8 542.2 1001.8 509.8C983.8 477.4 974.8 440.4 974.8 398.8ZM1428.83 442C1428.83 407.6 1435.23 377.4 1448.03 351.4C1461.23 325.4 1479.03 305.4 1501.43 291.4C1523.83 277.4 1548.83 270.4 1576.43 270.4C1600.03 270.4 1620.63 275.2 1638.23 284.8C1656.23 294.4 1670.03 307 1679.63 322.6V275.2H1782.23V610H1679.63V562.6C1669.63 578.2 1655.63 590.8 1637.63 600.4C1620.03 610 1599.43 614.8 1575.83 614.8C1548.63 614.8 1523.83 607.8 1501.43 593.8C1479.03 579.4 1461.23 559.2 1448.03 533.2C1435.23 506.8 1428.83 476.4 1428.83 442ZM1679.63 442.6C1679.63 417 1672.43 396.8 1658.03 382C1644.03 367.2 1626.83 359.8 1606.43 359.8C1586.03 359.8 1568.63 367.2 1554.23 382C1540.23 396.4 1533.23 416.4 1533.23 442C1533.23 467.6 1540.23 488 1554.23 503.2C1568.63 518 1586.03 525.4 1606.43 525.4C1626.83 525.4 1644.03 518 1658.03 503.2C1672.43 488.4 1679.63 468.2 1679.63 442.6ZM1959.06 331C1971.06 312.6 1986.06 298.2 2004.06 287.8C2022.06 277 2042.06 271.6 2064.06 271.6V380.2H2035.86C2010.26 380.2 1991.06 385.8 1978.26 397C1965.46 407.8 1959.06 427 1959.06 454.6V610H1856.46V275.2H1959.06V331ZM2265.5 614.8C2232.7 614.8 2203.1 607.8 2176.7 593.8C2150.7 579.8 2130.1 559.8 2114.9 533.8C2100.1 507.8 2092.7 477.4 2092.7 442.6C2092.7 408.2 2100.3 378 2115.5 352C2130.7 325.6 2151.5 305.4 2177.9 291.4C2204.3 277.4 2233.9 270.4 2266.7 270.4C2299.5 270.4 2329.1 277.4 2355.5 291.4C2381.9 305.4 2402.7 325.6 2417.9 352C2433.1 378 2440.7 408.2 2440.7 442.6C2440.7 477 2432.9 507.4 2417.3 533.8C2402.1 559.8 2381.1 579.8 2354.3 593.8C2327.9 607.8 2298.3 614.8 2265.5 614.8ZM2265.5 526C2285.1 526 2301.7 518.8 2315.3 504.4C2329.3 490 2336.3 469.4 2336.3 442.6C2336.3 415.8 2329.5 395.2 2315.9 380.8C2302.7 366.4 2286.3 359.2 2266.7 359.2C2246.7 359.2 2230.1 366.4 2216.9 380.8C2203.7 394.8 2197.1 415.4 2197.1 442.6C2197.1 469.4 2203.5 490 2216.3 504.4C2229.5 518.8 2245.9 526 2265.5 526ZM2825.73 275.2V610H2723.13V564.4C2712.73 579.2 2698.53 591.2 2680.53 600.4C2662.93 609.2 2643.33 613.6 2621.73 613.6C2596.13 613.6 2573.53 608 2553.93 596.8C2534.33 585.2 2519.13 568.6 2508.33 547C2497.53 525.4 2492.13 500 2492.13 470.8V275.2H2594.13V457C2594.13 479.4 2599.93 496.8 2611.53 509.2C2623.13 521.6 2638.73 527.8 2658.33 527.8C2678.33 527.8 2694.13 521.6 2705.73 509.2C2717.33 496.8 2723.13 479.4 2723.13 457V275.2H2825.73ZM3035.63 614.8C3006.43 614.8 2980.43 609.8 2957.63 599.8C2934.83 589.8 2916.83 576.2 2903.63 559C2890.43 541.4 2883.03 521.8 2881.43 500.2H2982.83C2984.03 511.8 2989.43 521.2 2999.03 528.4C3008.63 535.6 3020.43 539.2 3034.43 539.2C3047.23 539.2 3057.03 536.8 3063.83 532C3071.03 526.8 3074.63 520.2 3074.63 512.2C3074.63 502.6 3069.63 495.6 3059.63 491.2C3049.63 486.4 3033.43 481.2 3011.03 475.6C2987.03 470 2967.03 464.2 2951.03 458.2C2935.03 451.8 2921.23 442 2909.63 428.8C2898.03 415.2 2892.23 397 2892.23 374.2C2892.23 355 2897.43 337.6 2907.83 322C2918.63 306 2934.23 293.4 2954.63 284.2C2975.43 275 3000.03 270.4 3028.43 270.4C3070.43 270.4 3103.43 280.8 3127.43 301.6C3151.83 322.4 3165.83 350 3169.43 384.4H3074.63C3073.03 372.8 3067.83 363.6 3059.03 356.8C3050.63 350 3039.43 346.6 3025.43 346.6C3013.43 346.6 3004.23 349 2997.83 353.8C2991.43 358.2 2988.23 364.4 2988.23 372.4C2988.23 382 2993.23 389.2 3003.23 394C3013.63 398.8 3029.63 403.6 3051.23 408.4C3076.03 414.8 3096.23 421.2 3111.83 427.6C3127.43 433.6 3141.03 443.6 3152.63 457.6C3164.63 471.2 3170.83 489.6 3171.23 512.8C3171.23 532.4 3165.63 550 3154.43 565.6C3143.63 580.8 3127.83 592.8 3107.03 601.6C3086.63 610.4 3062.83 614.8 3035.63 614.8ZM3549.6 437.2C3549.6 446.8 3549 456.8 3547.8 467.2H3315.6C3317.2 488 3323.8 504 3335.4 515.2C3347.4 526 3362 531.4 3379.2 531.4C3404.8 531.4 3422.6 520.6 3432.6 499H3541.8C3536.2 521 3526 540.8 3511.2 558.4C3496.8 576 3478.6 589.8 3456.6 599.8C3434.6 609.8 3410 614.8 3382.8 614.8C3350 614.8 3320.8 607.8 3295.2 593.8C3269.6 579.8 3249.6 559.8 3235.2 533.8C3220.8 507.8 3213.6 477.4 3213.6 442.6C3213.6 407.8 3220.6 377.4 3234.6 351.4C3249 325.4 3269 305.4 3294.6 291.4C3320.2 277.4 3349.6 270.4 3382.8 270.4C3415.2 270.4 3444 277.2 3469.2 290.8C3494.4 304.4 3514 323.8 3528 349C3542.4 374.2 3549.6 403.6 3549.6 437.2ZM3444.6 410.2C3444.6 392.6 3438.6 378.6 3426.6 368.2C3414.6 357.8 3399.6 352.6 3381.6 352.6C3364.4 352.6 3349.8 357.6 3337.8 367.6C3326.2 377.6 3319 391.8 3316.2 410.2H3444.6ZM3706.32 166V610H3603.72V166H3706.32Z" fill="#FF526F"/>
</g>
<defs>
<clipPath id="clip0">
<rect width="3706" height="800" fill="white"/>
</clipPath>
</defs>
</svg>
